HIERARCHY
ROOT Hips
{
	OFFSET 0.00000 0.00000 0.00000
	CHANNELS 6 Xposition Yposition Zposition Zrotation Yrotation Xrotation 
	JOINT LHipJoint
	{
		OFFSET 0 0 0
		CHANNELS 3 Zrotation Yrotation Xrotation
		JOINT LeftUpLeg
		{
			OFFSET 1.40001 -1.72600 0.84541
			CHANNELS 3 Zrotation Yrotation Xrotation
			JOINT LeftLeg
			{
				OFFSET 2.34760 -6.44999 0.00000
				CHANNELS 3 Zrotation Yrotation Xrotation
				JOINT LeftFoot
				{
					OFFSET 2.50650 -6.88655 0.00000
					CHANNELS 3 Zrotation Yrotation Xrotation
					JOINT LeftToeBase
					{
						OFFSET 0.12464 -0.34243 1.95563
						CHANNELS 3 Zrotation Yrotation Xrotation
						End Site
						{
							OFFSET 0.00000 -0.00000 1.00479
						}
					}
				}
			}
		}
	}
	JOINT RHipJoint
	{
		OFFSET 0 0 0
		CHANNELS 3 Zrotation Yrotation Xrotation
		JOINT RightUpLeg
		{
			OFFSET -1.40958 -1.72600 0.84541
			CHANNELS 3 Zrotation Yrotation Xrotation
			JOINT RightLeg
			{
				OFFSET -2.37905 -6.53640 0.00000
				CHANNELS 3 Zrotation Yrotation Xrotation
				JOINT RightFoot
				{
					OFFSET -2.50470 -6.88163 0.00000
					CHANNELS 3 Zrotation Yrotation Xrotation
					JOINT RightToeBase
					{
						OFFSET -0.12236 -0.33619 1.81785
						CHANNELS 3 Zrotation Yrotation Xrotation
						End Site
						{
							OFFSET -0.00000 -0.00000 0.93746
						}
					}
				}
			}
		}
	}
	JOINT LowerBack
	{
		OFFSET 0 0 0
		CHANNELS 3 Zrotation Yrotation Xrotation
		JOINT Spine
		{
			OFFSET -0.02146 1.96915 0.26424
			CHANNELS 3 Zrotation Yrotation Xrotation
			JOINT Spine1
			{
				OFFSET 0.01522 1.99484 0.02086
				CHANNELS 3 Zrotation Yrotation Xrotation
				JOINT Neck
				{
					OFFSET 0 0 0
					CHANNELS 3 Zrotation Yrotation Xrotation
					JOINT Neck1
					{
						OFFSET -0.02954 1.71757 0.03505
						CHANNELS 3 Zrotation Yrotation Xrotation
						JOINT Head
						{
							OFFSET 0.04170 1.65781 -0.11024
							CHANNELS 3 Zrotation Yrotation Xrotation
							End Site
							{
								OFFSET 0.01600 1.81465 -0.05144
							}
						}
					}
				}
				JOINT LeftShoulder
				{
					OFFSET 0 0 0
					CHANNELS 3 Zrotation Yrotation Xrotation
					JOINT LeftArm
					{
						OFFSET 2.77679 1.60868 -0.78649
						CHANNELS 3 Zrotation Yrotation Xrotation
						JOINT LeftForeArm
						{
							OFFSET 4.62672 -0.00000 -0.00000
							CHANNELS 3 Zrotation Yrotation Xrotation
							JOINT LeftHand
							{
								OFFSET 3.11018 -0.00000 -0.00000
								CHANNELS 3 Zrotation Yrotation Xrotation
								JOINT LeftFingerBase
								{
									OFFSET 0 0 0
									CHANNELS 3 Zrotation Yrotation Xrotation
									JOINT LeftHandIndex1
									{
										OFFSET 0.74383 -0.00000 -0.00000
										CHANNELS 3 Zrotation Yrotation Xrotation
										End Site
										{
											OFFSET 0.59970 -0.00000 -0.00000
										}
									}
								}
								JOINT LThumb
								{
									OFFSET 0 0 0
									CHANNELS 3 Zrotation Yrotation Xrotation
									End Site
									{
										OFFSET 0.60885 -0.00000 0.60885
									}
								}
							}
						}
					}
				}
				JOINT RightShoulder
				{
					OFFSET 0 0 0
					CHANNELS 3 Zrotation Yrotation Xrotation
					JOINT RightArm
					{
						OFFSET -2.73247 1.63658 -0.74740
						CHANNELS 3 Zrotation Yrotation Xrotation
						JOINT RightForeArm
						{
							OFFSET -4.55919 -0.00000 -0.00000
							CHANNELS 3 Zrotation Yrotation Xrotation
							JOINT RightHand
							{
								OFFSET -3.22748 -0.00000 -0.00000
								CHANNELS 3 Zrotation Yrotation Xrotation
								JOINT RightFingerBase
								{
									OFFSET 0 0 0
									CHANNELS 3 Zrotation Yrotation Xrotation
									JOINT RightHandIndex1
									{
										OFFSET -0.70088 -0.00000 -0.00000
										CHANNELS 3 Zrotation Yrotation Xrotation
										End Site
										{
											OFFSET -0.56507 -0.00000 -0.00000
										}
									}
								}
								JOINT RThumb
								{
									OFFSET 0 0 0
									CHANNELS 3 Zrotation Yrotation Xrotation
									End Site
									{
										OFFSET -0.57370 -0.00000 0.57370
									}
								}
							}
						}
					}
				}
			}
		}
	}
}
MOTION
Frames: 16
Frame Time: .0083333
-0.9346 16.5718 -46.1932 0 0 0 0 0 0 -21 0 0 0 0 0 0 0 0 0 0 0 0 0 0 21 0 0 0 0 0 0 0 0 0 0 0 0 0 0 0 0 0 0 0 0 0 0 -16 0 0 21 0 0 11 0 0 0 -8 0 0 0 0 0 0 0 0 0 0 0 0 0 0 0 0 0 0 0 0 8 0 0 0 0 0 0 0 0 0 0 0 0 0 0 0 0 0
-0.9346 16.5718 -46.1932 0.0444 -0.8342 18.4111 0.0000 0.0000 0.0000 -17.6775 -7.1033 -41.0566 14.0183 19.1196 72.2604 0.0926 0.0654 -5.7710 0.1944 -2.8397 -7.8328 0.0000 0.0000 0.0000 21.6287 9.5511 -31.3292 -3.2407 -11.0749 32.5330 -1.0411 12.0107 -18.8652 -0.4360 4.2374 -11.7454 1.3164 0.0009 -16.1722 2.1774 -0.3314 -4.4356 1.4859 -0.1572 4.3455 2.1082 -0.5900 -3.6987 -4.8999 -0.5408 7.9653 -2.0014 -0.3868 3.2065 -0.0000 0.0000 0.0000 -89.7736 6.2601 21.8838 13.6833 -22.2801 -2.7069 -0.0000 -0.0000 11.8472 17.9702 -22.1899 -6.9838 -7.1250 0.0000 -0.0000 -6.8378 6.9072 6.0099 -0.0000 0.0000 0.0000 90.0119 -1.6836 11.5644 -15.0501 24.2158 -3.2464 0.0000 -0.0000 -1.9649 -19.9351 -34.2465 11.5359 7.1250 -0.0000 -0.0000 16.7204 -65.1555 -8.2540
-0.9434 16.5710 -46.0100 0.1969 -1.5027 18.1562 0.0000 0.0000 0.0000 -17.8827 -6.7872 -42.1785 13.6902 19.0174 71.2562 0.1146 0.2429 -6.4874 0.2111 -2.9581 -8.1621 0.0000 0.0000 0.0000 21.5578 9.4774 -30.2426 -3.2301 -11.0585 32.4775 -1.1161 12.1598 -19.4808 -0.4824 4.4540 -12.3575 0.9506 0.0004 -14.9689 2.2406 -0.2356 -4.9780 1.7702 -0.1106 3.1285 1.5123 -0.4604 -3.2276 -4.7351 -0.3226 8.4047 -1.8321 -0.2896 3.2729 0.0000 -0.0000 0.0000 -90.2341 7.7148 20.6674 13.2414 -21.6399 -2.5416 -0.0000 -0.0000 12.1571 18.0136 -20.9105 -6.6202 -7.1250 0.0000 -0.0000 -6.7274 8.2143 5.7379 0.0000 -0.0000 0.0000 89.5242 -2.1147 14.3446 -15.9864 25.5022 -3.6401 0.0000 -0.0000 -3.7824 -20.6639 -34.3939 12.0267 7.1250 -0.0000 -0.0000 16.0019 -65.5009 -8.0183
-0.9434 16.5776 -45.7935 0.7086 -0.5526 17.7340 0.0000 0.0000 0.0000 -18.1421 -7.8022 -42.4127 13.2669 18.8764 69.9524 0.1361 0.4372 -7.1409 0.1982 -2.8667 -7.9078 0.0000 0.0000 0.0000 21.4813 7.9531 -29.2264 -3.2277 -11.0548 32.4648 -1.2329 12.2863 -20.3863 -0.4170 4.1450 -11.4849 0.6287 -0.2739 -16.0536 1.8583 -0.5735 -3.9034 1.4920 -0.2815 4.8534 2.2059 -0.5725 -4.0667 -4.7996 -0.5382 7.8956 -1.9890 -0.3825 3.2528 -0.0000 -0.0000 0.0000 -89.8177 6.3621 19.9897 12.4488 -20.4743 -2.2568 -0.0000 -0.0000 12.7723 17.9082 -19.9648 -6.2964 -7.1250 0.0000 -0.0000 -6.7395 9.2005 5.6153 -0.0000 -0.0000 0.0000 89.8268 -0.0533 16.1377 -16.8282 26.6307 -4.0100 0.0000 -0.0000 -5.7957 -20.9695 -36.4131 12.8167 7.1250 -0.0000 -0.0000 17.7318 -67.4983 -9.7179
-0.9398 16.5681 -45.5991 0.4677 -1.0463 18.0922 0.0000 0.0000 0.0000 -17.8912 -7.7887 -43.9987 12.8754 18.7367 68.7381 0.1638 0.6318 -7.9000 0.2084 -2.9390 -8.1089 0.0000 0.0000 0.0000 21.7484 7.5753 -29.0075 -3.2230 -11.0476 32.4404 -1.2338 13.3961 -20.6340 -0.2831 3.4218 -9.4555 1.0106 -0.0265 -17.0389 1.7252 -0.3281 -3.6921 1.1874 -0.1563 5.6004 2.1191 -0.5949 -3.5903 -4.6205 -0.5861 7.4445 -1.9010 -0.3939 3.0044 -0.0000 -0.0000 0.0000 -89.7720 5.9862 18.9855 11.7001 -19.3533 -2.0018 -0.0000 -0.0000 13.3372 17.5411 -19.8904 -6.1380 -7.1250 0.0000 -0.0000 -6.9720 9.3238 5.7945 -0.0000 -0.0000 0.0000 89.6851 0.7586 18.3105 -17.8648 27.9837 -4.4856 0.0000 -0.0000 -7.5481 -21.7091 -36.6296 13.3624 7.1250 -0.0000 -0.0000 17.0721 -67.9249 -9.5125
-0.9453 16.5528 -45.4027 0.4226 -1.0017 18.2126 0.0000 0.0000 0.0000 -17.6370 -8.1198 -45.1788 12.4233 18.5639 67.3245 0.1584 1.2838 -8.1010 0.1539 -2.5278 -6.9667 0.0000 0.0000 0.0000 21.9726 7.0985 -28.4579 -3.2177 -11.0394 32.4129 -1.2827 13.6221 -21.0361 -0.2196 3.0164 -8.3245 1.0212 -0.1547 -16.2019 1.8137 -0.4691 -4.4987 1.2420 -0.2271 4.2964 1.5487 -0.4211 -2.8199 -4.3258 -0.3175 7.9771 -1.6908 -0.2630 3.0464 -0.0000 0.0000 0.0000 -90.1001 7.5533 17.8203 11.2593 -18.6846 -1.8581 -0.0000 -0.0000 13.8041 17.0306 -19.6728 -5.8875 -7.1250 0.0000 -0.0000 -7.2903 9.6105 6.0211 -0.0000 0.0000 0.0000 89.1973 -0.0892 20.1717 -18.9561 29.3641 -5.0093 0.0000 -0.0000 -7.6836 -20.2548 -35.6823 12.1472 7.1250 -0.0000 -0.0000 17.7896 -66.6021 -9.3878
-0.9500 16.5387 -45.2022 0.5578 -1.0390 18.2368 0.0000 0.0000 0.0000 -17.6279 -8.4298 -46.1376 11.9322 18.3618 65.7738 0.1554 1.9252 -8.4146 0.0929 -1.9654 -5.4100 0.0000 0.0000 0.0000 22.0004 6.4440 -27.8557 -3.2170 -11.0384 32.4093 -1.3434 13.8654 -21.5183 -0.1864 2.7806 -7.6684 0.7763 -0.2309 -15.5563 1.7928 -0.5086 -4.9143 1.3508 -0.2475 3.5144 1.4614 -0.3529 -2.8573 -4.3586 -0.2020 8.4889 -1.6902 -0.2144 3.2327 -0.0000 -0.0000 0.0000 -90.3513 11.1505 18.0867 12.3014 -20.2551 -2.2055 -0.0000 -0.0000 13.1094 16.8545 -19.1019 -5.6619 -7.1250 0.0000 -0.0000 -7.3780 10.2162 6.0038 -0.0000 -0.0000 0.0000 88.8296 -0.4174 22.0385 -20.1335 30.8028 -5.5995 0.0000 -0.0000 -8.4468 -18.4093 -34.9042 10.7829 7.1250 -0.0000 -0.0000 19.1441 -65.3460 -9.5727
-0.9547 16.5241 -45.0007 0.7170 -0.9335 18.1389 0.0000 0.0000 0.0000 -17.6283 -8.8884 -46.8067 11.3707 18.1118 63.9797 0.1863 1.9953 -9.1410 0.0977 -2.0153 -5.5480 0.0000 0.0000 0.0000 22.0588 5.5031 -27.1787 -3.2160 -11.0367 32.4038 -1.4256 14.3860 -22.2015 -0.1791 2.7259 -7.5166 0.6022 -0.1855 -15.5374 1.5462 -0.4128 -4.7457 1.2076 -0.2008 3.6799 2.0266 -0.4834 -3.2277 -4.6300 -0.3924 8.4801 -1.8934 -0.3044 3.2976 0.0000 -0.0000 0.0000 -90.0091 8.9747 16.7241 10.5897 -17.6567 -1.6493 -0.0000 -0.0000 14.9376 17.0164 -18.7296 -5.6125 -7.1250 0.0000 -0.0000 -7.2565 10.5786 5.8493 0.0000 -0.0000 0.0000 88.8684 0.3095 23.5161 -21.2112 32.0740 -6.1617 0.0000 -0.0000 -9.5111 -17.9940 -34.7838 10.4976 7.1250 -0.0000 -0.0000 19.4996 -65.1179 -9.6540
-0.9550 16.4981 -44.8288 0.1948 -2.2174 18.8878 0.0000 0.0000 0.0000 -17.0681 -8.5188 -48.7642 10.7961 17.8339 62.1177 0.2163 2.3667 -9.9862 0.0881 -1.9140 -5.2681 0.0000 0.0000 0.0000 22.3788 5.6727 -27.3736 -3.2140 -11.0337 32.3936 -1.3544 16.0459 -22.1614 -0.1062 2.1016 -5.7865 0.8866 0.3254 -15.6640 1.5540 0.2196 -5.1283 1.1697 0.1118 3.3336 2.0394 -0.4752 -2.9315 -4.6394 -0.3872 8.2204 -1.8907 -0.2966 3.1521 -0.0000 -0.0000 0.0000 -90.0047 9.6991 16.3382 10.2997 -17.2071 -1.5625 -0.0000 -0.0000 15.3177 17.2059 -18.9314 -5.7371 -7.1250 0.0000 -0.0000 -7.1419 10.3492 5.7891 -0.0000 -0.0000 0.0000 88.6771 1.3416 24.4021 -21.7786 32.7259 -6.4657 0.0000 -0.0000 -10.4708 -17.2299 -34.3542 9.9265 7.1250 -0.0000 -0.0000 19.9403 -64.5086 -9.5990
-0.9512 16.4765 -44.6311 0.1660 -2.2180 18.9631 0.0000 0.0000 0.0000 -16.8518 -8.9893 -49.3430 10.1083 17.4703 59.8499 0.2352 2.9870 -10.7633 0.1015 -2.0540 -5.6549 0.0000 0.0000 0.0000 22.5719 4.7960 -26.8086 -3.1755 -10.9738 32.1917 -1.3643 16.8112 -22.4539 -0.0584 1.5592 -4.2890 1.0494 0.2403 -15.6124 1.5570 0.0875 -5.3647 1.0553 0.0452 3.0587 1.6428 -0.3232 -2.1253 -4.4301 -0.1816 7.9233 -1.7298 -0.1884 2.9032 -0.0000 -0.0000 0.0000 -90.2639 10.7574 15.1915 10.1041 -16.9023 -1.5051 -0.0000 -0.0000 16.0417 17.1820 -18.9475 -5.7333 -7.1250 0.0000 -0.0000 -7.1583 10.3355 5.8045 -0.0000 -0.0000 0.0000 88.2718 1.1422 26.4040 -21.9106 32.8759 -6.5373 0.0000 -0.0000 -14.2914 -27.4246 -39.3201 18.2008 7.1250 -0.0000 -0.0000 12.8868 -72.3224 -8.4050
-0.9526 16.4540 -44.4380 -0.1374 -3.0008 19.3820 0.0000 0.0000 0.0000 -16.5194 -8.7217 -50.4232 9.3768 17.0442 57.3842 0.2277 3.8083 -11.2405 0.1084 -2.1225 -5.8443 0.0000 0.0000 0.0000 22.8506 4.5731 -26.4687 -3.1147 -10.8784 31.8709 -1.3473 17.6179 -22.6005 -0.0505 1.4501 -3.9881 1.3035 0.6102 -17.5678 1.3703 0.4794 -4.3857 0.8174 0.2420 5.1375 1.9204 -0.3192 -2.6519 -4.4275 -0.2161 7.2435 -1.7751 -0.1976 2.7719 0.0000 -0.0000 0.0000 -90.0583 9.5826 14.1849 9.7045 -16.2760 -1.3910 -0.0000 -0.0000 17.4455 17.0380 -18.4903 -5.5512 -7.1250 0.0000 -0.0000 -7.2323 10.8214 5.7934 0.0000 -0.0000 0.0000 88.3100 3.4284 26.9198 -23.9126 35.0717 -7.6563 0.0000 -0.0000 -12.2175 -18.1488 -36.3498 10.9949 7.1250 -0.0000 -0.0000 21.0158 -66.6031 -11.1501
-0.9533 16.4608 -44.2142 0.2872 -2.0377 18.4068 0.0000 0.0000 0.0000 -16.6777 -9.6262 -49.3720 8.5685 16.5219 54.5856 0.2609 3.8144 -11.8249 0.0046 -0.4359 -1.1976 0.0000 0.0000 0.0000 22.8700 2.9165 -24.5186 -3.0119 -10.7143 31.3222 -1.4889 17.3332 -23.4035 -0.0617 1.6031 -4.4100 0.6430 0.2817 -17.4458 1.3829 0.1560 -3.5778 1.1408 0.0766 5.9345 2.1189 -0.4715 -3.5662 -4.6463 -0.4229 7.2985 -1.9012 -0.3123 2.9568 -0.0000 0.0000 0.0000 -90.1695 9.1340 13.5175 9.3298 -15.6845 -1.2878 -0.0000 -0.0000 18.9320 16.9382 -18.0443 -5.3891 -7.1250 0.0000 -0.0000 -7.2797 11.2903 5.7615 -0.0000 0.0000 0.0000 87.8143 4.7544 27.6433 -25.0344 36.2391 -8.3102 0.0000 -0.0000 -12.8355 -18.7632 -36.3623 11.3877 7.1250 -0.0000 -0.0000 20.3113 -66.7948 -10.8516
-0.9404 16.4549 -44.0004 0.2987 -1.9953 18.1093 0.0000 0.0000 0.0000 -16.5818 -10.0686 -49.1625 7.7201 15.9095 51.5482 0.2348 4.5145 -11.9432 0.0035 -0.3828 -1.0518 0.0000 0.0000 0.0000 22.9453 1.7077 -23.2906 -2.8909 -10.5164 30.6656 -1.4499 18.1846 -23.4285 -0.0345 1.1983 -3.2946 1.0595 0.2912 -15.7306 1.1692 0.1555 -4.5366 0.6590 0.0798 3.9962 1.9116 -0.4049 -2.7611 -4.3594 -0.3167 7.8707 -1.7646 -0.2513 3.0007 -0.0000 -0.0000 0.0000 -90.0240 11.4497 13.0588 9.2115 -15.4968 -1.2560 -0.0000 -0.0000 19.2892 16.8335 -18.2565 -5.4144 -7.1250 0.0000 -0.0000 -7.3566 11.0847 5.8547 -0.0000 -0.0000 0.0000 87.6722 3.4943 28.7957 -26.3787 37.5802 -9.1176 0.0000 -0.0000 -12.7449 -19.8470 -34.8028 11.6408 7.1250 -0.0000 -0.0000 17.3653 -65.6573 -8.7820
-0.9386 16.4516 -43.7968 0.4362 -1.8492 18.0496 0.0000 0.0000 0.0000 -16.5466 -10.4859 -49.1227 6.8632 15.2156 48.3551 0.2052 4.8264 -11.6998 0.0276 -1.0730 -2.9498 0.0000 0.0000 0.0000 22.9795 0.4306 -22.3572 -2.7539 -10.2857 29.9068 -1.3919 18.9473 -23.3306 -0.0200 0.9139 -2.5118 0.9212 0.3175 -14.8903 0.9892 0.2402 -4.8824 0.5566 0.1197 3.1814 2.0890 -0.4150 -3.0162 -4.2560 -0.3435 8.1240 -1.7696 -0.2599 3.1346 0.0000 0.0000 0.0000 -89.8277 12.3868 12.7401 8.9709 -15.1140 -1.1925 -0.0000 -0.0000 19.8566 16.7143 -18.8519 -5.5420 -7.1250 0.0000 -0.0000 -7.4585 10.4886 6.0288 0.0000 0.0000 0.0000 87.5163 3.4256 29.4880 -27.5986 38.7441 -9.8714 0.0000 -0.0000 -13.1789 -18.3531 -36.1409 11.0704 7.1250 -0.0000 -0.0000 20.5391 -66.4719 -10.8265
-0.9377 16.4479 -43.5942 0.5132 -2.1592 18.0372 0.0000 0.0000 0.0000 -16.4784 -10.6166 -49.0945 6.0192 14.4469 45.0588 0.1787 5.0705 -11.4472 0.0824 -1.8515 -5.0955 0.0000 0.0000 0.0000 22.9501 -0.6059 -21.5199 -2.6269 -10.0651 29.1878 -1.3396 19.7404 -23.3003 -0.0201 0.9164 -2.5188 0.7212 0.2957 -15.6588 0.9884 0.2229 -4.4089 0.6731 0.1120 4.0919 2.0285 -0.3757 -2.8582 -4.3083 -0.2984 7.5587 -1.7643 -0.2359 2.9138 0.0000 0.0000 0.0000 -90.1372 12.2649 11.1594 8.7224 -14.7169 -1.1286 -0.0000 -0.0000 21.1763 16.5193 -18.8130 -5.4632 -7.1250 0.0000 -0.0000 -7.5838 10.5509 6.1222 0.0000 0.0000 0.0000 87.0490 4.4559 30.8300 -28.7259 39.7759 -10.5849 0.0000 -0.0000 -14.6254 -17.4896 -36.2443 10.5530 7.1250 -0.0000 -0.0000 21.6585 -66.3151 -11.3623
-0.9372 16.4343 -43.3955 0.4035 -2.6005 17.9823 0.0000 0.0000 0.0000 -16.1667 -10.6382 -49.0054 5.2122 13.6188 41.7315 0.1766 5.1424 -11.4767 0.0868 -1.9000 -5.2295 0.0000 0.0000 0.0000 23.0601 -1.6285 -20.6153 -2.4813 -9.8039 28.3439 -1.2576 20.6317 -23.1533 -0.0251 1.0228 -2.8115 0.4487 0.4438 -15.3811 1.0766 0.4590 -4.3736 0.9618 0.2280 3.9756 2.1924 -0.4968 -3.2277 -4.6154 -0.4466 7.7193 -1.9077 -0.3202 3.0351 0.0000 -0.0000 0.0000 -90.4187 12.5998 9.9819 8.5065 -14.3706 -1.0744 -0.0000 -0.0000 22.6100 16.5446 -18.4642 -5.3747 -7.1250 0.0000 -0.0000 -7.5536 10.9049 6.0423 0.0000 -0.0000 0.0000 86.4841 4.8966 31.6113 -29.9216 40.8261 -11.3583 0.0000 -0.0000 -15.8701 -17.0860 -35.6387 10.1539 7.1250 -0.0000 -0.0000 21.4419 -65.6487 -10.9170
